<svg version="1.1" id="Layer_1" xmlns="http://www.w3.org/2000/svg" xmlns:xlink="http://www.w3.org/1999/xlink" x="0px" y="0px"
	 width="100%" viewBox="0 0 736 544" enable-background="new 0 0 736 544" xml:space="preserve">
<path fill="#000000" opacity="1.000000" stroke="none" 
	d="
M407.174652,398.666046 
	C382.090759,398.807343 357.430054,398.963806 332.770020,398.894165 
	C325.458466,398.873535 321.765594,394.874023 321.644073,387.648163 
	C321.562836,382.816742 321.393372,377.971466 321.658356,373.154114 
	C321.902283,368.719513 320.524811,367.085968 315.767029,367.149323 
	C296.106781,367.411102 276.440430,367.171265 256.777496,367.299652 
	C250.975571,367.337524 246.100067,366.020050 243.636429,360.302887 
	C241.061417,354.327362 243.802902,349.732910 247.921402,345.548981 
	C264.870178,328.330841 281.786591,311.080841 298.685333,293.813568 
	C299.799988,292.674622 301.321716,291.777496 301.639618,289.876343 
	C299.747955,288.838959 297.725189,289.333405 295.802338,289.311829 
	C271.479218,289.038696 247.150253,289.318817 222.833527,288.415436 
	C215.180466,288.131073 211.289841,284.448792 211.257782,277.109863 
	C211.224380,269.462402 215.025742,265.946167 223.055206,265.591217 
	C247.703598,264.501587 272.367157,265.013336 297.022308,264.698303 
	C298.484894,264.679596 299.946167,264.556335 302.000763,264.451508 
	C299.766205,260.559937 296.788879,257.949005 294.071869,255.181274 
	C278.896790,239.722824 263.658447,224.326401 248.421722,208.928543 
	C244.520279,204.985840 241.177368,200.813644 243.598160,194.825195 
	C246.156631,188.496170 251.488190,186.734131 257.764526,186.736298 
	C277.095032,186.742981 296.426849,186.612167 315.754974,186.825104 
	C320.082825,186.872757 321.808655,185.623978 321.616516,181.230972 
	C321.391052,176.076401 321.538849,170.900253 321.665558,165.736908 
	C321.816650,159.580643 324.812866,156.216339 330.887939,155.309036 
	C332.690948,155.039780 334.539917,154.991241 336.367950,154.989334 
	C358.031403,154.966736 379.694855,154.962006 401.358276,154.987274 
	C403.350891,154.989609 405.366302,155.082413 407.331390,155.388397 
	C413.196075,156.301559 416.152557,159.583878 416.333771,165.493744 
	C416.481873,170.322372 416.399445,175.158020 416.422485,179.990540 
	C416.454437,186.695541 416.455688,186.722427 422.970764,186.729645 
	C440.968109,186.749603 458.965485,186.744659 476.962830,186.750656 
	C478.295959,186.751099 479.629089,186.763260 480.962219,186.764938 
	C487.074677,186.772675 491.493347,189.520950 494.072937,195.053207 
	C496.668152,200.618912 493.764191,204.656143 490.094666,208.367081 
	C473.926025,224.718201 457.720673,241.033035 441.565247,257.397217 
	C439.608124,259.379608 437.317200,261.119415 436.064423,263.846039 
	C437.875824,265.390289 439.955780,264.664368 441.840088,264.692596 
	C466.326660,265.059540 490.824768,264.382385 515.303345,265.588501 
	C522.738159,265.954834 526.856323,269.910217 526.867493,277.018799 
	C526.878357,283.951874 522.482849,288.094360 515.200989,288.404327 
	C490.718719,289.446594 466.220642,288.964050 441.731750,289.311615 
	C439.956726,289.336792 438.096344,288.869202 436.360046,289.846527 
	C436.193909,291.488312 437.511444,292.142303 438.389862,293.035767 
	C455.678436,310.620789 472.975342,328.197662 490.278778,345.768066 
	C492.648224,348.174103 494.774750,350.719177 495.232086,354.222168 
	C496.198212,361.622711 490.918304,367.095306 482.337799,367.159393 
	C463.508209,367.299988 444.677185,367.240295 425.846741,367.274658 
	C415.165009,367.294128 416.535950,366.485260 416.412720,376.626495 
	C416.368164,380.292206 416.427399,383.959412 416.363922,387.624634 
	C416.256653,393.815552 413.852234,396.789307 407.174652,398.666046 
M336.891418,199.604828 
	C335.109589,197.852737 333.336823,196.091354 331.543945,194.350662 
	C328.460144,191.356674 325.412048,191.416153 322.393768,194.470520 
	C319.365265,197.535217 319.402649,200.569061 322.410645,203.624649 
	C326.034027,207.305298 329.638641,211.004425 333.253571,214.693390 
	C349.114288,230.878845 364.980408,247.059021 380.828064,263.257263 
	C382.080048,264.536987 383.816742,265.786469 382.918488,267.916962 
	C382.088776,269.885040 380.078857,269.298828 378.503815,269.384491 
	C373.348389,269.664856 368.188171,269.989563 363.027893,270.025848 
	C340.697113,270.182983 318.365479,270.219818 296.034515,270.355530 
	C290.081635,270.391693 288.075348,272.351898 288.294769,277.553497 
	C288.482208,281.996826 290.479706,283.630463 296.113037,283.660828 
	C319.277405,283.785706 342.442230,283.827881 365.606293,283.989960 
	C370.431274,284.023712 375.255402,284.407349 380.076569,284.687378 
	C383.634796,284.894104 383.941467,286.727661 382.175934,289.325104 
	C381.529510,290.276154 380.603058,291.040009 379.786621,291.871857 
	C360.994995,311.018463 342.189148,330.151093 323.416351,349.316162 
	C319.292328,353.526398 319.089996,356.226776 322.419769,359.529053 
	C325.777069,362.858582 328.522369,362.642517 332.700439,358.559235 
	C345.447632,346.101227 358.169342,333.617126 370.890228,321.132294 
	C377.907013,314.245728 384.895782,307.330597 391.914459,300.446014 
	C392.973785,299.406952 394.047638,298.113586 395.768555,298.660248 
	C397.890259,299.334167 397.510468,301.288818 397.552307,302.882324 
	C397.753418,310.538879 397.964630,318.196777 398.018524,325.855255 
	C398.159271,345.853058 398.241180,365.851349 398.293304,385.849609 
	C398.303253,389.661530 398.942780,392.908020 403.462891,393.637848 
	C408.699951,394.483459 411.601379,392.021301 411.648254,386.404968 
	C411.748383,374.406586 411.691895,362.407013 411.741089,350.408081 
	C411.801208,335.742828 411.871735,321.077362 412.018341,306.412842 
	C412.044128,303.836090 411.080353,300.445862 413.814606,299.080200 
	C416.866516,297.555878 418.398621,300.990509 420.227417,302.682892 
	C424.506195,306.642426 428.587830,310.815155 432.746338,314.904541 
	C447.477692,329.391052 462.206879,343.879791 476.939392,358.365112 
	C479.236359,360.623566 481.503204,362.903320 485.205841,361.264801 
	C490.421387,358.956726 491.235474,354.075287 486.888702,349.631897 
	C467.778839,330.097137 448.603333,310.626587 429.469543,291.115173 
	C428.110138,289.728912 425.981995,288.410889 426.877319,286.142639 
	C427.825897,283.739441 430.340881,284.718567 432.203247,284.628571 
	C459.180786,283.324768 486.182343,283.961182 513.173157,283.689545 
	C513.673096,283.684509 514.173706,283.698822 514.672974,283.679047 
	C519.753174,283.477875 521.726257,281.471008 521.748169,276.709320 
	C521.770386,271.871399 518.910828,270.361755 514.668030,270.322906 
	C513.334900,270.310699 512.001587,270.313843 510.668427,270.298187 
	C484.344879,269.989044 458.008789,270.735718 431.698792,269.370636 
	C429.980560,269.281494 427.750916,270.057404 426.826233,267.865326 
	C425.917999,265.712280 427.834503,264.561188 429.071808,263.288513 
	C431.975800,260.301544 434.942749,257.375885 437.861938,254.403488 
	C454.205444,237.761917 470.555847,221.127045 486.872101,204.458740 
	C491.085052,200.154922 490.628479,195.599258 485.803345,192.944229 
	C481.766235,190.722809 479.257690,193.391785 476.721680,195.886459 
	C457.478455,214.816132 438.243469,233.754211 418.979034,252.662262 
	C417.603180,254.012665 416.264801,256.086761 413.956268,255.100708 
	C411.733490,254.151306 412.038757,251.788788 412.019958,249.831070 
	C411.930511,240.498993 411.897339,231.166306 411.862061,221.833771 
	C411.794037,203.835434 411.770203,185.836838 411.658295,167.838791 
	C411.622833,162.138824 408.904541,159.629532 403.703461,160.286789 
	C398.829987,160.902634 398.329529,164.448395 398.302277,168.383484 
	C398.113953,195.544846 397.900513,222.706070 397.661987,249.867035 
	C397.645081,251.790451 398.229340,254.199142 395.903717,255.151077 
	C393.545776,256.116211 392.343597,253.900772 390.972626,252.560623 
	C373.099274,235.089294 355.250122,217.593277 336.891418,199.604828 
z"/>
</svg>